<?xml version="1.0" encoding="utf-8"?>
<!-- Generator: Adobe Illustrator 14.0.0, SVG Export Plug-In  -->
<!DOCTYPE svg PUBLIC "-//W3C//DTD SVG 1.1//EN" "http://www.w3.org/Graphics/SVG/1.1/DTD/svg11.dtd" [
	<!ENTITY ns_flows "http://ns.adobe.com/Flows/1.0/">
]>
<svg version="1.1"
	 xmlns="http://www.w3.org/2000/svg" xmlns:xlink="http://www.w3.org/1999/xlink" xmlns:a="http://ns.adobe.com/AdobeSVGViewerExtensions/3.0/"
	 x="0px" y="0px" width="486px" height="332px" viewBox="-1.271 -2.936 486 332" enable-background="new -1.271 -2.936 486 332"
	 xml:space="preserve">
<defs>
</defs>
<path fill="#0A3E77" d="M362.002,320.687l-2.825,0.63c-0.671,0.15-1.342-0.277-1.493-0.949c-0.151-0.676,0.275-1.347,0.945-1.498
	l2.817-0.649c0.679-0.154,1.355,0.272,1.511,0.956c0.153,0.677-0.274,1.355-0.946,1.511H362.002z"/>
<path fill="#0A3E77" d="M350.586,322.949l-2.854,0.452c-0.664,0.105-1.289-0.346-1.397-1.019c-0.103-0.661,0.351-1.288,1.01-1.394
	l2.853-0.467c0.67-0.109,1.302,0.344,1.413,1.017c0.108,0.67-0.348,1.299-1.017,1.41H350.586z"/>
<path fill="#0A3E77" d="M339.053,324.482l-2.881,0.263c-0.65,0.054-1.229-0.425-1.287-1.076c-0.06-0.65,0.417-1.229,1.071-1.291
	l2.872-0.278c0.658-0.062,1.243,0.418,1.304,1.076c0.062,0.655-0.416,1.238-1.074,1.307H339.053z"/>
<path fill="#0A3E77" d="M327.438,325.237l-2.893,0.062c-0.63,0.014-1.155-0.489-1.173-1.128c-0.016-0.632,0.491-1.157,1.115-1.179
	l2.892-0.078c0.642-0.018,1.18,0.487,1.193,1.126c0.02,0.647-0.483,1.181-1.127,1.195L327.438,325.237z"/>
<path fill="#0A3E77" d="M315.802,325.18l-2.889-0.145c-0.616-0.031-1.093-0.553-1.062-1.173c0.029-0.617,0.55-1.095,1.166-1.065
	l2.89,0.129c0.622,0.023,1.104,0.556,1.079,1.175c-0.03,0.623-0.556,1.106-1.181,1.079H315.802z"/>
<path fill="#0A3E77" d="M304.194,324.276l-2.865-0.356c-0.596-0.075-1.023-0.619-0.943-1.211c0.075-0.599,0.616-1.019,1.208-0.947
	l2.866,0.342c0.603,0.07,1.028,0.614,0.959,1.213c-0.069,0.604-0.616,1.033-1.218,0.96H304.194z"/>
<path fill="#0A3E77" d="M292.693,322.504l-2.833-0.58c-0.568-0.115-0.94-0.67-0.824-1.241c0.121-0.567,0.674-0.937,1.241-0.822
	l2.835,0.562c0.573,0.109,0.949,0.67,0.834,1.244c-0.111,0.578-0.674,0.955-1.25,0.838H292.693z"/>
<path fill="#0A2F66" d="M24.571,110.23c1.396-0.2,2.732-0.349,4.007-0.453c1.266-0.096,2.666-0.151,4.205-0.151
	c1.333,0,2.635,0.056,3.905,0.151c1.266,0.104,2.67,0.253,4.208,0.453l22.531,72.004c-2.739,0.407-5.405,0.607-8.009,0.607
	c-2.541,0-5.009-0.2-7.414-0.607l-4-14.412H20.161l-4.104,14.412c-2.403,0.407-4.709,0.607-6.914,0.607
	c-2.471,0-4.903-0.2-7.308-0.607L24.571,110.23z M40.594,155.7l-8.312-30.247L23.57,155.7H40.594z"/>
<path fill="#0A2F66" d="M52.961,110.23c1.135-0.131,2.434-0.267,3.909-0.4c1.469-0.131,2.766-0.204,3.907-0.204
	c2.525,0,5.202,0.204,8.006,0.604l15.729,56.786l15.92-56.786c1.342-0.2,2.622-0.333,3.859-0.4c1.23-0.069,2.48-0.104,3.749-0.104
	c1.206,0,2.421,0.035,3.66,0.104c1.235,0.067,2.521,0.2,3.86,0.4l-23.245,72.004c-1.394,0.209-2.753,0.36-4.052,0.459
	c-1.305,0.105-2.684,0.148-4.155,0.148c-1.334,0-2.639-0.043-3.909-0.148c-1.264-0.099-2.667-0.25-4.204-0.459L52.961,110.23z"/>
<path fill="#0A2F66" d="M123.566,110.23c2.47-0.4,4.91-0.604,7.313-0.604c2.401,0,4.873,0.204,7.414,0.604v72.004
	c-2.541,0.41-4.981,0.607-7.315,0.607c-2.477,0-4.942-0.197-7.412-0.607V110.23z"/>
<path fill="#0A2F66" d="M181.651,183.444c-5.406,0-10.081-0.94-14.02-2.806c-3.937-1.873-7.178-4.452-9.706-7.764
	c-2.548-3.301-4.433-7.213-5.667-11.712c-1.232-4.511-1.848-9.433-1.848-14.777c0-5.342,0.615-10.302,1.848-14.876
	c1.234-4.57,3.119-8.524,5.667-11.864c2.528-3.336,5.77-5.94,9.706-7.814c3.938-1.867,8.613-2.802,14.02-2.802
	c5.412,0,10.087,0.935,14.024,2.802c3.939,1.874,7.181,4.479,9.718,7.814c2.538,3.34,4.421,7.294,5.656,11.864
	c1.239,4.574,1.847,9.534,1.847,14.876c0,5.345-0.607,10.267-1.847,14.777c-1.235,4.499-3.118,8.411-5.656,11.712
	c-2.537,3.312-5.778,5.891-9.718,7.764C191.738,182.504,187.063,183.444,181.651,183.444 M181.651,171.227
	c10.352,0,15.527-8.275,15.527-24.841c0-8.276-1.256-14.485-3.752-18.626c-2.513-4.146-6.397-6.21-11.668-6.21
	c-10.482,0-15.723,8.279-15.723,24.836C166.036,162.951,171.24,171.227,181.651,171.227"/>
<path fill="#0A2F66" d="M225.022,110.23c2.071-0.4,4.044-0.604,5.907-0.604c2.005,0,4.075,0.204,6.213,0.604l27.84,45.87v-45.87
	c2.403-0.4,4.709-0.604,6.916-0.604c2.061,0,4.071,0.204,6.005,0.604v72.004c-2.138,0.41-4.065,0.607-5.807,0.607
	c-1.869,0-3.905-0.197-6.106-0.607l-28.047-45.761v45.761c-2.138,0.41-4.312,0.607-6.506,0.607c-2.21,0-4.344-0.197-6.415-0.607
	V110.23z"/>
<path fill="#0A2F66" d="M291.922,110.23h40.87c0.4,2.006,0.589,4.043,0.589,6.11c0,2.201-0.188,4.306-0.589,6.304h-26.241v15.629
	h20.829c0.396,2.139,0.597,4.208,0.597,6.208c0,2.138-0.2,4.239-0.597,6.314h-20.829v19.027h26.944
	c0.396,2.007,0.603,4.038,0.603,6.113c0,2.199-0.207,4.306-0.603,6.298h-41.573V110.23z"/>
<path fill="#0A2F66" d="M358.223,148.89c-2.262-0.87-4.298-1.814-6.108-2.854c-1.794-1.033-3.34-2.266-4.604-3.701
	c-1.271-1.439-2.256-3.161-2.953-5.165c-0.7-2.003-1.053-4.4-1.053-7.208c0-3.402,0.579-6.408,1.75-9.018
	c1.169-2.598,2.816-4.784,4.962-6.56c2.145-1.766,4.707-3.098,7.707-4.004c3.008-0.9,6.379-1.351,10.113-1.351
	c3.413,0,6.605,0.301,9.574,0.895c2.962,0.609,6.088,1.476,9.363,2.614c-0.403,3.869-1.476,7.673-3.206,11.417
	c-1.006-0.402-2.021-0.802-3.052-1.21c-1.045-0.396-2.143-0.726-3.309-0.997c-1.173-0.263-2.494-0.482-3.958-0.649
	c-1.466-0.169-3.137-0.252-5.007-0.252c-1.132,0-2.287,0.097-3.453,0.301c-1.173,0.204-2.225,0.564-3.157,1.104
	c-0.937,0.533-1.704,1.314-2.299,2.354c-0.601,1.034-0.903,2.388-0.903,4.057c0,1.333,0.233,2.454,0.695,3.354
	c0.472,0.897,1.107,1.667,1.904,2.304c0.799,0.637,1.704,1.17,2.705,1.6c1.002,0.437,2.003,0.853,3.011,1.25l6.008,2.31
	c2.534,1,4.831,2.035,6.902,3.101c2.071,1.072,3.826,2.392,5.264,3.962c1.44,1.565,2.551,3.467,3.354,5.702
	c0.806,2.239,1.202,4.994,1.202,8.266c0,3.404-0.618,6.508-1.854,9.314c-1.239,2.803-3.022,5.207-5.36,7.213
	c-2.337,2-5.223,3.572-8.662,4.709c-3.438,1.128-7.396,1.699-11.866,1.699c-2.206,0-4.173-0.062-5.913-0.199
	c-1.734-0.135-3.388-0.353-4.957-0.65c-1.566-0.302-3.121-0.684-4.65-1.148c-1.546-0.47-3.144-1.039-4.811-1.709
	c0.194-1.932,0.562-3.962,1.1-6.055c0.533-2.106,1.17-4.225,1.904-6.365c2.802,1.137,5.443,1.993,7.915,2.552
	c2.468,0.57,5.104,0.854,7.912,0.854c4.208,0,7.498-0.785,9.915-2.353c2.403-1.567,3.596-3.958,3.596-7.159
	c0-1.604-0.273-2.94-0.85-4.003c-0.566-1.075-1.3-1.971-2.194-2.712c-0.905-0.729-1.918-1.349-3.063-1.848
	c-1.129-0.505-2.301-0.989-3.498-1.455L358.223,148.89z"/>
<path fill="none" stroke="#0A3E77" stroke-width="3.4644" stroke-linecap="round" stroke-linejoin="round" stroke-miterlimit="10" d="
	M1.732,193.361c2.636-0.316,5.392-0.575,8.282-0.801c2.879-0.214,6.082-0.329,9.595-0.329c11.861,0,20.871,2.955,27.052,8.854
	c6.18,5.892,9.272,14.736,9.272,26.529c0,11.857-3.136,20.573-9.412,26.16c-6.272,5.587-15.591,8.371-27.947,8.371
	c-3.197,0-6.148-0.105-8.848-0.325c-2.69-0.223-5.358-0.487-7.994-0.803V193.361z M15.564,250.105
	c0.561,0.064,1.282,0.122,2.163,0.183c0.873,0.064,1.949,0.1,3.201,0.1c2.883,0,5.566-0.334,8.046-0.992
	c2.479-0.656,4.623-1.866,6.443-3.622c1.82-1.752,3.262-4.101,4.328-7.05c1.063-2.954,1.605-6.746,1.605-11.39
	c0-4.521-0.542-8.279-1.605-11.29c-1.066-3.01-2.508-5.396-4.328-7.155c-1.82-1.75-3.902-2.99-6.259-3.712
	c-2.351-0.726-4.846-1.085-7.48-1.085c-0.88,0-1.897,0.017-3.059,0.048c-1.162,0.029-2.179,0.111-3.056,0.232V250.105z"/>
<path fill="none" stroke="#0A3E77" stroke-width="3.4644" stroke-linecap="round" stroke-linejoin="round" stroke-miterlimit="10" d="
	M67.316,193.361h38.389c0.377,1.883,0.567,3.796,0.567,5.74c0,2.072-0.19,4.051-0.567,5.935H81.059v14.682h19.571
	c0.381,2.002,0.565,3.942,0.565,5.825c0,2.01-0.185,3.989-0.565,5.933H81.059v17.875h25.309c0.38,1.883,0.571,3.797,0.571,5.743
	c0,2.068-0.191,4.044-0.571,5.924H67.316V193.361z"/>
<path fill="none" stroke="#0A3E77" stroke-width="3.4644" stroke-linecap="round" stroke-linejoin="round" stroke-miterlimit="10" d="
	M137.98,193.083c2.883-0.251,5.808-0.458,8.742-0.609c2.962-0.156,5.94-0.242,8.94-0.242c3.146,0,6.332,0.316,9.562,0.941
	c3.228,0.632,6.141,1.807,8.748,3.531c2.604,1.727,4.723,4.125,6.351,7.198c1.634,3.074,2.448,7.06,2.448,11.95
	c0,4.897-0.814,8.86-2.448,11.904c-1.628,3.044-3.735,5.44-6.299,7.202c-2.574,1.754-5.447,2.946-8.615,3.576
	c-3.171,0.62-6.286,0.937-9.359,0.937c-0.819,0-1.584-0.02-2.312-0.045c-0.721-0.026-1.393-0.078-2.019-0.144v21.734
	c-1.19,0.19-2.354,0.315-3.481,0.38c-1.131,0.061-2.224,0.094-3.298,0.094c-0.999,0-2.101-0.033-3.289-0.094
	c-1.19-0.064-2.41-0.189-3.671-0.38V193.083z M151.72,227.899c0.753,0.127,1.462,0.188,2.116,0.188h2.398
	c1.567,0,3.108-0.201,4.61-0.608c1.512-0.412,2.844-1.084,4.001-2.031c1.163-0.937,2.092-2.176,2.772-3.714
	c0.694-1.54,1.035-3.433,1.035-5.689c0-2.327-0.341-4.282-1.035-5.886c-0.681-1.597-1.609-2.881-2.772-3.855
	c-1.157-0.977-2.489-1.662-4.001-2.069c-1.502-0.405-3.043-0.616-4.61-0.616c-0.683,0-1.333,0.014-1.925,0.049
	c-0.601,0.033-1.455,0.115-2.59,0.236V227.899z"/>
<path fill="none" stroke="#0A3E77" stroke-width="3.4644" stroke-linecap="round" stroke-linejoin="round" stroke-miterlimit="10" d="
	M202.908,193.361c1.316-0.188,2.574-0.323,3.762-0.42c1.195-0.096,2.513-0.143,3.95-0.143c1.255,0,2.481,0.047,3.673,0.143
	c1.199,0.097,2.511,0.231,3.955,0.42l21.178,67.656c-2.579,0.38-5.089,0.569-7.539,0.569c-2.385,0-4.703-0.189-6.958-0.569
	l-3.769-13.545h-22.394l-3.86,13.545c-2.256,0.38-4.421,0.569-6.495,0.569c-2.312,0-4.605-0.189-6.868-0.569L202.908,193.361z
	 M217.961,236.087l-7.809-28.417l-8.186,28.417H217.961z"/>
<path fill="none" stroke="#0A3E77" stroke-width="3.4644" stroke-linecap="round" stroke-linejoin="round" stroke-miterlimit="10" d="
	M247.037,193.083c2.891-0.251,5.806-0.458,8.76-0.609c2.938-0.156,5.926-0.242,8.931-0.242c3.141,0,6.318,0.316,9.55,0.941
	c3.232,0.632,6.153,1.807,8.76,3.531c2.597,1.727,4.712,4.125,6.349,7.198c1.626,3.074,2.444,7.06,2.444,11.95
	c0,4.897-0.818,8.86-2.444,11.904c-1.637,3.044-3.734,5.44-6.302,7.202c-2.579,1.754-5.452,2.946-8.623,3.576
	c-3.156,0.62-6.287,0.937-9.354,0.937c-0.821,0-1.586-0.02-2.303-0.045c-0.729-0.026-1.404-0.078-2.034-0.144v21.734
	c-1.188,0.19-2.341,0.315-3.481,0.38c-1.124,0.061-2.226,0.094-3.29,0.094c-1,0-2.1-0.033-3.29-0.094
	c-1.188-0.064-2.417-0.189-3.672-0.38V193.083z M260.771,227.899c0.761,0.127,1.462,0.188,2.123,0.188h2.396
	c1.568,0,3.11-0.201,4.607-0.608c1.511-0.412,2.842-1.084,4.008-2.031c1.154-0.937,2.091-2.176,2.771-3.714
	c0.694-1.54,1.036-3.433,1.036-5.689c0-2.327-0.342-4.282-1.036-5.886c-0.68-1.597-1.616-2.881-2.771-3.855
	c-1.166-0.977-2.497-1.662-4.008-2.069c-1.497-0.405-3.039-0.616-4.607-0.616c-0.689,0-1.331,0.014-1.93,0.049
	c-0.596,0.033-1.455,0.115-2.59,0.236V227.899z"/>
<path fill="none" stroke="#0A3E77" stroke-width="3.4644" stroke-linecap="round" stroke-linejoin="round" stroke-miterlimit="10" d="
	M301.896,193.361h38.39c0.373,1.883,0.567,3.796,0.567,5.74c0,2.072-0.194,4.051-0.567,5.935h-24.651v14.682h19.566
	c0.383,2.002,0.572,3.942,0.572,5.825c0,2.01-0.189,3.989-0.572,5.933h-19.566v17.875h25.315c0.372,1.883,0.557,3.797,0.557,5.743
	c0,2.068-0.185,4.044-0.557,5.924h-39.054V193.361z"/>
<path fill="none" stroke="#0A3E77" stroke-width="3.4644" stroke-linecap="round" stroke-linejoin="round" stroke-miterlimit="10" d="
	M351.856,193.361c2.327-0.375,4.554-0.562,6.684-0.562c2.196,0,4.49,0.188,6.875,0.562v55.801h23.426
	c0.181,1.065,0.316,2.083,0.385,3.06c0.054,0.977,0.085,1.899,0.085,2.776c0,1.006-0.031,1.992-0.085,2.958
	c-0.068,0.98-0.204,1.999-0.385,3.062h-36.984V193.361z"/>
<path fill="#F96300" d="M317.417,1.677l115.12,26.329c0,0-3.093,40.367-7.657,50.309l-10.194-32.27l-2.831-2.263L317.417,1.677z"/>
<polyline fill="none" stroke="#0A3E77" stroke-width="1.8116" stroke-linecap="round" stroke-linejoin="round" stroke-miterlimit="10" points="
	432.537,28.006 316.685,1.51 414.313,44.874 424.885,78.314 "/>
<path fill="none" stroke="#0A3E77" stroke-width="1.8116" stroke-linecap="round" stroke-linejoin="round" stroke-miterlimit="10" d="
	M414.316,44.874c0,0-11.862,9.715-17.808,13.427"/>
<path fill="none" stroke="#0A3E77" stroke-width="1.2078" stroke-linecap="round" stroke-linejoin="round" d="M316.685,1.51
	c0,0,0.253,0.189,0.732,0.527"/>
<path fill="none" stroke="#0A3E77" stroke-width="1.2078" stroke-linecap="round" stroke-linejoin="round" stroke-dasharray="1.8405,2.4531" d="
	M319.415,3.452c12.425,8.843,63.541,45.212,75.985,54.056"/>
<path fill="none" stroke="#0A3E77" stroke-width="1.2078" stroke-linecap="round" stroke-linejoin="round" d="M396.404,58.218
	c0.282,0.198,0.524,0.373,0.731,0.521"/>
<path fill="none" stroke="#0A2F66" stroke-width="3.0194" stroke-linecap="round" stroke-linejoin="round" stroke-miterlimit="10" d="
	M460.727,10.285c0,0-12.343-3.104-21.48-7.329L316.685,1.51l47.923,60.955c0,0,20.066,1.305,26.648-0.097l5.936-3.709l27.689,19.655
	c0,0,7.921-27.357,7.656-50.309C432.537,28.006,456.779,14.155,460.727,10.285z"/>
<path fill="#0A3E77" d="M438.425,88.4c0,0,0.616,0.348,1.257,0.743c0.703,0.495,1.402,0.991,1.402,0.991
	c0.972,0.688,1.201,2.038,0.516,3.008c-0.686,0.972-2.031,1.199-3.008,0.515l-0.007-0.005l-0.134-0.098c0,0-0.475-0.341-0.948-0.68
	c-0.592-0.354-1.239-0.714-1.239-0.714c-1.039-0.59-1.417-1.911-0.825-2.955c0.587-1.044,1.904-1.415,2.948-0.825l0.012,0.003
	L438.425,88.4z"/>
<path fill="#0A3E77" d="M447.531,96.667l1.778,2.274c0.721,0.93,0.564,2.261-0.361,2.981c-0.92,0.721-2.249,0.559-2.975-0.35
	l-1.791-2.268c-0.734-0.923-0.578-2.261,0.345-2.997c0.922-0.729,2.263-0.573,2.997,0.347L447.531,96.667z"/>
<path fill="#0A3E77" d="M454.318,106.328l1.492,2.479c0.592,0.988,0.27,2.268-0.718,2.866c-0.979,0.59-2.264,0.274-2.861-0.705
	l-1.502-2.465c-0.602-0.989-0.289-2.279,0.7-2.883c0.986-0.604,2.279-0.293,2.879,0.699L454.318,106.328z"/>
<path fill="#0A3E77" d="M460.032,116.566l1.279,2.588c0.505,1.018,0.091,2.246-0.926,2.752c-1.013,0.496-2.241,0.087-2.746-0.922
	l-1.299-2.578c-0.512-1.017-0.101-2.261,0.917-2.769c1.019-0.51,2.254-0.099,2.768,0.917L460.032,116.566z"/>
<path fill="#0A3E77" d="M464.944,127.176l1.101,2.669c0.425,1.032-0.065,2.212-1.096,2.635c-1.025,0.425-2.203-0.062-2.628-1.081
	l-1.119-2.666c-0.434-1.029,0.054-2.219,1.079-2.649c1.032-0.435,2.223,0.049,2.654,1.081L464.944,127.176z"/>
<path fill="#0A3E77" d="M469.14,138.077l0.937,2.73c0.352,1.035-0.202,2.166-1.235,2.518c-1.034,0.352-2.154-0.194-2.517-1.225
	l-0.949-2.729c-0.363-1.037,0.188-2.173,1.228-2.53c1.037-0.365,2.176,0.183,2.537,1.219V138.077z"/>
<path fill="#0A3E77" d="M472.655,149.21l0.763,2.787c0.282,1.037-0.329,2.11-1.364,2.391c-1.034,0.282-2.103-0.322-2.388-1.354
	l-0.778-2.78c-0.294-1.038,0.315-2.121,1.353-2.415c1.037-0.285,2.123,0.32,2.412,1.359L472.655,149.21z"/>
<path fill="#0A3E77" d="M475.468,160.542l0.585,2.831c0.216,1.033-0.45,2.046-1.482,2.258c-1.034,0.213-2.045-0.447-2.263-1.474
	l-0.603-2.827c-0.216-1.04,0.449-2.059,1.483-2.277c1.035-0.223,2.056,0.441,2.279,1.479V160.542z"/>
<path fill="#0A3E77" d="M477.55,172.038l0.39,2.862c0.143,1.028-0.57,1.974-1.602,2.115c-1.023,0.142-1.974-0.575-2.114-1.59
	l-0.416-2.863c-0.147-1.03,0.571-1.987,1.604-2.139c1.028-0.143,1.985,0.567,2.132,1.604L477.55,172.038z"/>
<path fill="#0A3E77" d="M478.837,183.655l0.184,2.884c0.066,1.015-0.705,1.888-1.718,1.961c-1.01,0.062-1.887-0.703-1.958-1.708
	l-0.2-2.889c-0.076-1.018,0.69-1.903,1.709-1.977c1.021-0.071,1.909,0.697,1.98,1.716L478.837,183.655z"/>
<path fill="#0A3E77" d="M479.263,195.344l-0.039,2.885c-0.011,1.003-0.828,1.802-1.827,1.789c-0.994-0.016-1.794-0.828-1.789-1.818
	l0.022-2.891c0.005-1.001,0.823-1.812,1.829-1.806c1.006,0.01,1.811,0.824,1.804,1.828V195.344z"/>
<path fill="#0A3E77" d="M478.751,207.039l-0.282,2.875c-0.093,0.972-0.961,1.687-1.938,1.591c-0.968-0.092-1.679-0.956-1.589-1.925
	l0.258-2.877c0.094-0.981,0.959-1.702,1.938-1.611c0.98,0.086,1.701,0.957,1.616,1.937L478.751,207.039z"/>
<path fill="#0A3E77" d="M477.223,218.652l-0.543,2.834c-0.182,0.947-1.086,1.562-2.036,1.382c-0.94-0.179-1.56-1.086-1.384-2.022
	l0.53-2.841c0.176-0.948,1.083-1.572,2.033-1.4c0.952,0.177,1.576,1.09,1.399,2.038V218.652z"/>
<path fill="#0A3E77" d="M474.595,230.073l-0.821,2.772c-0.269,0.905-1.215,1.415-2.115,1.15c-0.901-0.268-1.411-1.213-1.154-2.107
	l0.807-2.778c0.261-0.908,1.213-1.431,2.127-1.165c0.899,0.268,1.425,1.209,1.157,2.117V230.073z"/>
<path fill="#0A3E77" d="M470.821,241.177l-1.114,2.67c-0.348,0.852-1.329,1.255-2.179,0.899c-0.85-0.352-1.244-1.318-0.903-2.17
	l1.095-2.675c0.352-0.856,1.33-1.266,2.189-0.914c0.853,0.349,1.262,1.326,0.914,2.185L470.821,241.177z"/>
<path fill="#0A3E77" d="M465.877,251.825l-1.395,2.525c-0.432,0.788-1.424,1.079-2.217,0.637c-0.783-0.428-1.076-1.415-0.649-2.199
	l1.38-2.544c0.432-0.795,1.431-1.091,2.221-0.657c0.801,0.43,1.094,1.427,0.661,2.228L465.877,251.825z"/>
<path fill="#0A3E77" d="M459.798,261.851l-1.664,2.366c-0.512,0.717-1.504,0.891-2.229,0.381c-0.716-0.504-0.89-1.495-0.389-2.213
	l1.65-2.373c0.507-0.732,1.504-0.912,2.234-0.4c0.731,0.502,0.905,1.502,0.404,2.229L459.798,261.851z"/>
<path fill="#0A3E77" d="M452.662,271.148l-1.908,2.17c-0.57,0.648-1.56,0.709-2.208,0.137c-0.643-0.565-0.705-1.55-0.145-2.193
	l1.896-2.179c0.567-0.655,1.563-0.725,2.211-0.162c0.657,0.575,0.724,1.563,0.158,2.227L452.662,271.148z"/>
<path fill="#0A3E77" d="M444.584,279.628l-2.118,1.962c-0.619,0.576-1.583,0.539-2.157-0.08c-0.571-0.618-0.533-1.575,0.076-2.153
	l2.105-1.972c0.624-0.581,1.595-0.552,2.173,0.071c0.585,0.618,0.55,1.588-0.07,2.171L444.584,279.628z"/>
<path fill="#0A3E77" d="M435.717,287.255l-2.297,1.749c-0.656,0.501-1.595,0.374-2.093-0.278c-0.494-0.653-0.37-1.584,0.275-2.085
	l2.287-1.769c0.654-0.509,1.602-0.387,2.107,0.278c0.503,0.647,0.383,1.593-0.27,2.102L435.717,287.255z"/>
<path fill="#0A3E77" d="M426.193,294.02l-2.437,1.547c-0.681,0.429-1.58,0.229-2.012-0.449c-0.428-0.676-0.23-1.576,0.445-2.006
	l2.43-1.562c0.675-0.438,1.587-0.236,2.025,0.444c0.442,0.677,0.24,1.583-0.441,2.022L426.193,294.02z"/>
<path fill="#0A3E77" d="M416.162,299.961l-2.573,1.36c-0.688,0.366-1.549,0.104-1.916-0.591c-0.367-0.692-0.104-1.556,0.584-1.921
	l0.014-0.006l2.537-1.36c0.692-0.38,1.562-0.126,1.938,0.569c0.378,0.692,0.122,1.565-0.57,1.938L416.162,299.961z"/>
<path fill="#0A3E77" d="M405.782,305.211l-2.614,1.227c-0.7,0.329-1.524,0.026-1.851-0.666c-0.325-0.695-0.025-1.513,0.66-1.844
	l2.61-1.242c0.696-0.327,1.531-0.035,1.856,0.663c0.337,0.692,0.037,1.531-0.652,1.86L405.782,305.211z"/>
<path fill="#0A3E77" d="M395.164,309.953l-2.672,1.095c-0.692,0.284-1.483-0.053-1.769-0.739c-0.285-0.693,0.049-1.479,0.734-1.769
	l2.668-1.106c0.693-0.291,1.492,0.039,1.781,0.734c0.286,0.696-0.04,1.489-0.735,1.783L395.164,309.953z"/>
<path fill="#0A3E77" d="M384.315,314.146l-2.729,0.944c-0.693,0.241-1.443-0.122-1.682-0.813c-0.242-0.684,0.118-1.436,0.804-1.676
	l2.726-0.97c0.694-0.245,1.45,0.115,1.699,0.812c0.243,0.691-0.122,1.452-0.812,1.694L384.315,314.146z"/>
<path fill="#0A3E77" d="M373.254,317.733l-2.78,0.796c-0.684,0.195-1.397-0.199-1.594-0.882c-0.193-0.684,0.203-1.391,0.881-1.593
	l2.772-0.809c0.686-0.202,1.402,0.191,1.611,0.882c0.196,0.685-0.2,1.405-0.884,1.605H373.254z"/>
<path fill="#0A3E77" d="M281.361,319.833l-2.774-0.797c-0.541-0.158-0.853-0.72-0.698-1.264c0.157-0.537,0.718-0.853,1.257-0.695
	l2.781,0.783c0.547,0.152,0.863,0.722,0.712,1.267c-0.151,0.554-0.724,0.864-1.271,0.712L281.361,319.833z"/>
<path fill="#0A3E77" d="M270.283,316.259l-2.701-1.021c-0.503-0.196-0.762-0.766-0.567-1.275c0.195-0.506,0.759-0.765,1.268-0.573
	l2.708,1.013c0.512,0.192,0.772,0.767,0.581,1.279c-0.194,0.518-0.766,0.774-1.281,0.587L270.283,316.259z"/>
<path fill="#0A3E77" d="M259.549,311.767l-2.601-1.255c-0.473-0.229-0.672-0.799-0.445-1.271c0.228-0.474,0.794-0.67,1.271-0.445
	l2.605,1.243c0.479,0.226,0.681,0.801,0.454,1.28c-0.229,0.48-0.801,0.681-1.282,0.45L259.549,311.767z"/>
<path fill="#0A3E77" d="M249.245,306.351l-2.477-1.488c-0.434-0.265-0.574-0.83-0.313-1.262c0.264-0.44,0.824-0.575,1.259-0.318
	l2.481,1.477c0.44,0.262,0.589,0.827,0.327,1.27c-0.259,0.44-0.835,0.585-1.275,0.322H249.245z"/>
<path fill="#0A3E77" d="M239.492,299.995l-2.32-1.729c-0.392-0.291-0.472-0.847-0.176-1.234c0.285-0.398,0.839-0.474,1.234-0.189
	l2.325,1.712c0.398,0.296,0.482,0.852,0.191,1.25c-0.294,0.396-0.852,0.48-1.251,0.19H239.492z"/>
<path fill="#0A3E77" d="M230.428,292.684l-2.125-1.962c-0.343-0.32-0.363-0.857-0.047-1.206c0.32-0.347,0.856-0.371,1.199-0.055
	l2.134,1.951c0.35,0.324,0.38,0.865,0.058,1.217c-0.324,0.355-0.867,0.378-1.217,0.055H230.428z"/>
<path fill="#0A3E77" d="M222.224,284.402l-1.873-2.201c-0.292-0.344-0.247-0.858,0.096-1.156c0.344-0.289,0.858-0.247,1.15,0.094
	l1.887,2.19c0.296,0.344,0.254,0.866-0.094,1.167c-0.341,0.301-0.867,0.258-1.162-0.088L222.224,284.402z"/>
<path fill="#0A3E77" d="M215.137,275.139l-1.542-2.444c-0.229-0.371-0.122-0.853,0.245-1.084c0.367-0.232,0.852-0.118,1.081,0.24
	l1.553,2.435c0.236,0.372,0.131,0.861-0.238,1.097c-0.373,0.234-0.86,0.129-1.099-0.24V275.139z"/>
<path fill="#0A3E77" d="M209.539,264.885l-1.091-2.679c-0.155-0.383,0.026-0.821,0.412-0.976c0.38-0.159,0.822,0.023,0.982,0.405
	l1.102,2.668c0.162,0.391-0.022,0.835-0.409,0.997c-0.389,0.162-0.832-0.025-0.996-0.412V264.885z"/>
<path fill="#0A3E77" d="M206.014,253.723l-0.458-2.856c-0.068-0.388,0.204-0.757,0.597-0.821c0.39-0.062,0.759,0.199,0.822,0.588
	l0.47,2.855c0.069,0.396-0.195,0.773-0.594,0.836c-0.398,0.066-0.776-0.202-0.837-0.595V253.723z"/>
<path fill="#0A3E77" d="M205.399,242.007l0.405-2.862c0.052-0.372,0.394-0.632,0.772-0.582c0.373,0.055,0.634,0.397,0.582,0.773
	l-0.385,2.864c-0.053,0.376-0.399,0.643-0.782,0.588c-0.379-0.048-0.646-0.397-0.593-0.777V242.007z"/>
<path fill="#0A3E77" d="M208.548,230.701l1.382-2.573c0.188-0.305,0.585-0.407,0.897-0.224c0.31,0.183,0.411,0.587,0.227,0.892
	c0.022-0.052-0.08,0.148-0.198,0.369c-0.129,0.243-0.301,0.562-0.463,0.88c-0.341,0.64-0.685,1.274-0.685,1.274
	c-0.169,0.324-0.568,0.447-0.889,0.275c-0.324-0.169-0.449-0.569-0.275-0.894H208.548z"/>
<path fill="#0A3E77" d="M227.339,220.314c0,0,0.643,0.331,1.286,0.663c0.641,0.411,1.288,0.82,1.288,0.82
	c0.265,0.172,0.348,0.536,0.174,0.804c-0.167,0.271-0.53,0.35-0.804,0.181l-0.042-0.027l-1.152-0.728l-1.284-0.654
	c-0.293-0.146-0.411-0.501-0.261-0.797c0.141-0.291,0.495-0.409,0.789-0.265L227.339,220.314z"/>
<path fill="#0A3E77" d="M236.004,228.215l1.527,2.45c0.161,0.262,0.085,0.597-0.173,0.755c-0.258,0.161-0.596,0.084-0.757-0.166
	l-1.54-2.446c-0.168-0.263-0.088-0.605,0.174-0.769c0.257-0.166,0.602-0.087,0.769,0.17V228.215z"/>
<path fill="#0A3E77" d="M241.065,238.721l0.825,2.769c0.08,0.272-0.073,0.557-0.347,0.637c-0.273,0.083-0.555-0.069-0.639-0.338
	l-0.841-2.77c-0.085-0.274,0.073-0.566,0.347-0.653c0.276-0.086,0.572,0.074,0.654,0.353V238.721z"/>
<path fill="#0A3E77" d="M243.457,250.114l0.216,2.881c0.021,0.265-0.176,0.493-0.445,0.514c-0.262,0.019-0.495-0.176-0.516-0.441
	l-0.229-2.878c-0.024-0.272,0.178-0.509,0.45-0.527c0.267-0.021,0.503,0.179,0.524,0.447V250.114z"/>
<path fill="#0A3E77" d="M243.422,261.749l-0.386,2.859c-0.032,0.245-0.257,0.42-0.507,0.383c-0.242-0.033-0.409-0.254-0.378-0.497
	l0.364-2.864c0.032-0.254,0.259-0.429,0.506-0.397c0.254,0.031,0.428,0.263,0.4,0.51V261.749z"/>
<path fill="#0A3E77" d="M240.973,273.117l-0.974,2.71c-0.075,0.219-0.313,0.328-0.531,0.254c-0.212-0.078-0.323-0.312-0.242-0.527
	l0.958-2.724c0.074-0.222,0.312-0.334,0.534-0.261c0.216,0.08,0.334,0.32,0.257,0.541L240.973,273.117z"/>
<path fill="#0A3E77" d="M236.18,283.699l-1.525,2.449c-0.112,0.177-0.345,0.229-0.526,0.119c-0.176-0.109-0.229-0.34-0.118-0.517
	l1.515-2.463c0.11-0.18,0.353-0.235,0.532-0.125c0.185,0.109,0.238,0.352,0.123,0.534V283.699z"/>
<path fill="#0A3E77" d="M229.283,293.038l-1.998,2.092c-0.126,0.138-0.347,0.138-0.48,0.011c-0.143-0.133-0.146-0.352-0.02-0.491
	l1.98-2.097c0.138-0.146,0.357-0.148,0.501-0.013c0.142,0.129,0.151,0.354,0.017,0.496V293.038z"/>
<path fill="#0A3E77" d="M220.708,300.85l-2.341,1.694c-0.138,0.105-0.331,0.071-0.432-0.067c-0.104-0.136-0.071-0.33,0.066-0.434
	l2.328-1.711c0.141-0.103,0.338-0.075,0.445,0.071C220.88,300.543,220.853,300.741,220.708,300.85"/>
<path fill="#0A3E77" d="M210.942,307.09l-2.572,1.322c-0.132,0.07-0.301,0.015-0.373-0.121c-0.065-0.132-0.01-0.303,0.122-0.371
	l2.559-1.338c0.141-0.073,0.313-0.021,0.387,0.12C211.137,306.845,211.082,307.014,210.942,307.09L210.942,307.09z"/>
<path fill="#0A3E77" d="M200.4,311.884l-2.71,0.993c-0.125,0.049-0.266-0.018-0.312-0.146c-0.051-0.122,0.016-0.265,0.141-0.31
	l2.703-1.012c0.132-0.047,0.281,0.018,0.33,0.147C200.598,311.691,200.531,311.833,200.4,311.884"/>
<path fill="#0A3E77" d="M189.379,315.424l-2.799,0.711c-0.109,0.03-0.227-0.036-0.256-0.148c-0.024-0.111,0.043-0.225,0.151-0.257
	l2.795-0.728c0.117-0.027,0.236,0.042,0.269,0.156C189.566,315.275,189.497,315.394,189.379,315.424L189.379,315.424z"/>
<path fill="#0A3E77" d="M178.082,317.909l-2.848,0.476c-0.1,0.015-0.187-0.048-0.202-0.144c-0.02-0.101,0.047-0.19,0.141-0.205
	l2.85-0.489c0.1-0.021,0.193,0.045,0.214,0.151C178.252,317.797,178.185,317.893,178.082,317.909"/>
<path fill="#0A3E77" d="M166.626,319.509l-2.873,0.278c-0.077,0.003-0.146-0.053-0.157-0.127c-0.005-0.081,0.053-0.147,0.128-0.155
	l2.869-0.296c0.093-0.008,0.162,0.051,0.171,0.134C166.771,319.426,166.712,319.496,166.626,319.509"/>
<path fill="#0A3E77" d="M155.1,320.367l-2.888,0.106c-0.058,0.004-0.109-0.04-0.113-0.101c-0.003-0.058,0.049-0.111,0.104-0.113
	l2.888-0.131c0.064,0,0.116,0.049,0.118,0.113C155.216,320.304,155.162,320.364,155.1,320.367"/>
<path fill="#0A3E77" d="M143.54,320.595l-2.886-0.03c-0.048,0-0.077-0.035-0.077-0.08c0-0.036,0.038-0.071,0.077-0.071l2.887,0.018
	c0.044,0,0.078,0.035,0.078,0.08S143.585,320.595,143.54,320.595L143.54,320.595z"/>
<path fill="#0A3E77" d="M131.986,320.286l-2.886-0.151c-0.021,0-0.041-0.018-0.041-0.042c0-0.022,0.024-0.04,0.047-0.038
	l2.884,0.136c0.027,0.004,0.049,0.022,0.049,0.049C132.033,320.269,132.011,320.291,131.986,320.286"/>
<path fill="#0A3E77" d="M120.455,319.517l-2.877-0.253c-0.006,0-0.006-0.003-0.006-0.003c0-0.007,0-0.007,0.006-0.007l2.88,0.238
	c0.007,0,0.015,0.004,0.011,0.017C120.469,319.517,120.462,319.517,120.455,319.517"/>
</svg>
